<svg xmlns="http://www.w3.org/2000/svg" viewBox="0 0 550 300" font-family="Arial, sans-serif">
  <rect width="550" height="300" fill="white"/>

  <!-- Connections -->
  <g stroke="#999" stroke-width="0.5">
    <!-- Input to H1 -->
    <line x1="80" y1="80" x2="200" y2="90"/> <line x1="80" y1="80" x2="200" y2="120"/>
    <line x1="80" y1="80" x2="200" y2="160"/> <line x1="80" y1="80" x2="200" y2="190"/>
    <line x1="80" y1="80" x2="200" y2="220"/>
    <line x1="80" y1="110" x2="200" y2="90"/> <line x1="80" y1="110" x2="200" y2="120"/>
    <line x1="80" y1="110" x2="200" y2="160"/> <line x1="80" y1="110" x2="200" y2="190"/>
    <line x1="80" y1="110" x2="200" y2="220"/>
    <line x1="80" y1="140" x2="200" y2="90"/> <line x1="80" y1="140" x2="200" y2="120"/>
    <line x1="80" y1="140" x2="200" y2="160"/> <line x1="80" y1="140" x2="200" y2="190"/>
    <line x1="80" y1="140" x2="200" y2="220"/>
    <line x1="80" y1="180" x2="200" y2="90"/> <line x1="80" y1="180" x2="200" y2="120"/>
    <line x1="80" y1="180" x2="200" y2="160"/> <line x1="80" y1="180" x2="200" y2="190"/>
    <line x1="80" y1="180" x2="200" y2="220"/>
    <line x1="80" y1="210" x2="200" y2="90"/> <line x1="80" y1="210" x2="200" y2="120"/>
    <line x1="80" y1="210" x2="200" y2="160"/> <line x1="80" y1="210" x2="200" y2="190"/>
    <line x1="80" y1="210" x2="200" y2="220"/>
    <!-- H1 to H2 -->
    <line x1="200" y1="90" x2="330" y2="120"/> <line x1="200" y1="90" x2="330" y2="150"/>
    <line x1="200" y1="90" x2="330" y2="190"/>
    <line x1="200" y1="120" x2="330" y2="120"/> <line x1="200" y1="120" x2="330" y2="150"/>
    <line x1="200" y1="120" x2="330" y2="190"/>
    <line x1="200" y1="160" x2="330" y2="120"/> <line x1="200" y1="160" x2="330" y2="150"/>
    <line x1="200" y1="160" x2="330" y2="190"/>
    <line x1="200" y1="190" x2="330" y2="120"/> <line x1="200" y1="190" x2="330" y2="150"/>
    <line x1="200" y1="190" x2="330" y2="190"/>
    <line x1="200" y1="220" x2="330" y2="120"/> <line x1="200" y1="220" x2="330" y2="150"/>
    <line x1="200" y1="220" x2="330" y2="190"/>
    <!-- H2 to Output -->
    <line x1="330" y1="120" x2="460" y2="140"/>
    <line x1="330" y1="120" x2="460" y2="160"/>
    <line x1="330" y1="120" x2="460" y2="180"/>
    <line x1="330" y1="150" x2="460" y2="140"/>
    <line x1="330" y1="150" x2="460" y2="160"/>
    <line x1="330" y1="150" x2="460" y2="180"/>
    <line x1="330" y1="190" x2="460" y2="140"/>
    <line x1="330" y1="190" x2="460" y2="160"/>
    <line x1="330" y1="190" x2="460" y2="180"/>
  </g>

  <!-- Input (127) -->
  <circle cx="80" cy="80" r="8" fill="white" stroke="black" stroke-width="1.5"/>
  <circle cx="80" cy="110" r="8" fill="white" stroke="black" stroke-width="1.5"/>
  <circle cx="80" cy="140" r="8" fill="white" stroke="black" stroke-width="1.5"/>
  <text x="80" y="163" text-anchor="middle" font-size="10" fill="black">...</text>
  <circle cx="80" cy="180" r="8" fill="white" stroke="black" stroke-width="1.5"/>
  <circle cx="80" cy="210" r="8" fill="white" stroke="black" stroke-width="1.5"/>
  <text x="80" y="245" text-anchor="middle" font-size="16" font-weight="bold" fill="black">127</text>

  <!-- H1 (256) -->
  <circle cx="200" cy="90" r="8" fill="white" stroke="black" stroke-width="1.5"/>
  <circle cx="200" cy="120" r="8" fill="white" stroke="black" stroke-width="1.5"/>
  <text x="200" y="148" text-anchor="middle" font-size="10" fill="black">...</text>
  <circle cx="200" cy="160" r="8" fill="white" stroke="black" stroke-width="1.5"/>
  <circle cx="200" cy="190" r="8" fill="white" stroke="black" stroke-width="1.5"/>
  <circle cx="200" cy="220" r="8" fill="white" stroke="black" stroke-width="1.5"/>
  <text x="200" y="250" text-anchor="middle" font-size="16" font-weight="bold" fill="black">256</text>

  <!-- H2 (128) -->
  <circle cx="330" cy="120" r="8" fill="white" stroke="black" stroke-width="1.5"/>
  <text x="330" y="148" text-anchor="middle" font-size="10" fill="black">...</text>
  <circle cx="330" cy="160" r="8" fill="white" stroke="black" stroke-width="1.5"/>
  <circle cx="330" cy="190" r="8" fill="white" stroke="black" stroke-width="1.5"/>
  <text x="330" y="225" text-anchor="middle" font-size="16" font-weight="bold" fill="black">128</text>

  <!-- Output (3) -->
  <circle cx="460" cy="140" r="8" fill="white" stroke="black" stroke-width="1.5"/>
  <circle cx="460" cy="160" r="8" fill="white" stroke="black" stroke-width="1.5"/>
  <circle cx="460" cy="180" r="8" fill="white" stroke="black" stroke-width="1.5"/>
  <text x="460" y="215" text-anchor="middle" font-size="16" font-weight="bold" fill="black">3</text>
</svg>